<svg width="645" height="171" viewBox="0 0 645 171" fill="none" xmlns="http://www.w3.org/2000/svg">
<path d="M600.253 54.7119C613.617 54.7119 624.415 58.9729 632.649 67.495C640.883 75.8818 645 87.6503 645 102.801V161.618C645 165.554 641.809 168.745 637.873 168.745H623.781C619.845 168.745 616.654 165.554 616.654 161.618V106.656C616.654 97.728 614.427 90.8968 609.972 86.1623C605.518 81.2926 599.443 78.8577 591.749 78.8577C583.92 78.8577 577.711 81.2926 573.122 86.1623C568.667 90.8968 566.44 97.728 566.44 106.656V161.618C566.44 165.554 563.249 168.745 559.313 168.745H545.221C541.285 168.745 538.094 165.554 538.094 161.618V63.4622C538.094 59.5261 541.285 56.3352 545.221 56.3352H559.313C563.249 56.3352 566.44 59.5261 566.44 63.4622V70.3357C570.22 65.4659 575.012 61.6784 580.816 58.9729C586.755 56.1323 593.234 54.7119 600.253 54.7119Z" fill="#25282A"/>
<path d="M0 112.391C0 101.018 2.24188 90.9308 6.72563 82.1299C11.3453 73.3291 17.5274 66.5592 25.2721 61.8203C33.1526 57.0814 41.9163 54.7119 51.5632 54.7119C59.9872 54.7119 67.3243 56.4044 73.5743 59.7893C79.9603 63.1743 85.0555 67.4393 88.8599 72.5844V63.6669C88.8599 59.7307 92.0508 56.5398 95.9869 56.5398H110.47C114.406 56.5398 117.597 59.7307 117.597 63.6669V161.928C117.597 165.864 114.406 169.055 110.47 169.055H95.9869C92.0508 169.055 88.8599 165.864 88.8599 161.928V152.604C85.1913 157.885 80.0962 162.285 73.5743 165.806C67.1884 169.191 59.7834 170.883 51.3594 170.883C41.8484 170.883 33.1526 168.446 25.2721 163.572C17.5274 158.697 11.3453 151.86 6.72563 143.059C2.24188 134.123 0 123.9 0 112.391ZM88.8599 112.798C88.8599 105.892 87.5012 100.002 84.7837 95.1281C82.0663 90.1184 78.3978 86.3273 73.7782 83.7547C69.1585 81.0468 64.1992 79.6928 58.9002 79.6928C53.6013 79.6928 48.7099 80.9791 44.2261 83.5516C39.7424 86.1242 36.0739 89.9153 33.2206 94.925C30.5031 99.7993 29.1444 105.621 29.1444 112.391C29.1444 119.161 30.5031 125.119 33.2206 130.264C36.0739 135.274 39.7424 139.132 44.2261 141.84C48.8458 144.548 53.7371 145.902 58.9002 145.902C64.1992 145.902 69.1585 144.616 73.7782 142.043C78.3978 139.335 82.0663 135.544 84.7837 130.67C87.5012 125.66 88.8599 119.703 88.8599 112.798Z" fill="#25282A"/>
<path d="M406.956 112.037C406.956 100.734 409.184 90.7086 413.641 81.9617C418.232 73.2149 424.377 66.4865 432.075 61.7767C439.908 57.0668 448.618 54.7119 458.207 54.7119C466.579 54.7119 473.872 56.394 480.084 59.7582C486.431 63.1224 491.496 67.3612 495.277 72.4748V63.6556C495.277 59.7195 498.468 56.5286 502.404 56.5286H516.713C520.649 56.5286 523.84 59.7195 523.84 63.6556V161.227C523.84 165.163 520.649 168.354 516.713 168.354H502.404C498.468 168.354 495.277 165.163 495.277 161.227V152.004C491.631 157.252 486.567 161.625 480.084 165.124C473.737 168.488 466.377 170.17 458.004 170.17C448.551 170.17 439.908 167.748 432.075 162.904C424.377 158.059 418.232 151.264 413.641 142.517C409.184 133.636 406.956 123.476 406.956 112.037ZM495.277 112.441C495.277 105.578 493.927 99.7246 491.226 94.8802C488.525 89.9012 484.878 86.1333 480.287 83.5766C475.695 80.8852 470.766 79.5395 465.499 79.5395C460.232 79.5395 455.37 80.8179 450.914 83.3747C446.457 85.9315 442.811 89.6994 439.975 94.6783C437.274 99.5227 435.924 105.309 435.924 112.037C435.924 118.766 437.274 124.687 439.975 129.8C442.811 134.779 446.457 138.614 450.914 141.306C455.505 143.997 460.367 145.343 465.499 145.343C470.766 145.343 475.695 144.064 480.287 141.508C484.878 138.816 488.525 135.048 491.226 130.204C493.927 125.225 495.277 119.304 495.277 112.441Z" fill="#25282A"/>
<path d="M198.166 80.3031C195.203 83.086 190.987 84.3933 186.418 84.3933L183.25 84.3932C174.506 84.3932 170.737 86.8205 166.232 91.0001C161.86 95.1796 159.674 102.46 159.674 112.842V161.532C159.674 165.468 156.483 168.659 152.547 168.659H138.978C135.042 168.659 131.851 165.468 131.851 161.532V63.7468C131.851 59.8107 135.042 56.6198 138.978 56.6198H152.547C156.483 56.6198 159.674 59.8107 159.674 63.7468V74.0121C163.251 68.0799 171.037 60.9787 176.735 57.6081C179.073 56.2559 182.097 54.7119 186.869 54.7119C191.437 54.7119 195.203 56.1639 198.166 59.0679C201.253 61.8508 202.796 65.3598 202.796 69.5947C202.796 73.8297 201.253 77.3991 198.166 80.3031Z" fill="#25282A"/>
<path d="M291.848 40.7316C295.062 43.629 299.047 45.0778 303.803 45.0778C308.559 45.0778 312.479 43.629 315.564 40.7316C318.778 37.7081 320.384 33.9918 320.384 29.5826C320.384 25.1734 318.778 21.52 315.564 18.6226C312.479 15.5991 308.559 14.0874 303.803 14.0874C299.047 14.0874 295.062 15.5991 291.848 18.6226C288.763 21.52 287.221 25.1734 287.221 29.5826C287.221 33.9918 288.763 37.7081 291.848 40.7316Z" fill="#25282A"/>
<path d="M272.379 168.943C245.937 168.943 224.503 147.501 224.503 121.051H251.82C251.82 132.409 261.025 141.617 272.379 141.617C283.733 141.617 290.072 132.409 290.072 121.051H317.511C317.511 147.501 298.82 168.943 272.379 168.943Z" fill="#25282A"/>
<path d="M310.384 54.7119C314.32 54.7119 317.511 57.9028 317.511 61.839V121.051H290.072V61.839C290.072 57.9028 293.263 54.7119 297.199 54.7119H310.384Z" fill="#25282A"/>
<path d="M268.691 78.8814H251.788L251.82 121.051H224.464V78.8814H218.801C214.865 78.8814 211.674 75.6905 211.674 71.7543V63.8554C211.674 59.9193 214.865 56.7284 218.801 56.7284H224.464V37.4645C224.464 33.5283 227.655 30.3374 231.591 30.3374H244.661C248.597 30.3374 251.788 33.5283 251.788 37.4645V56.7284H268.691C272.627 56.7284 275.818 59.9193 275.818 63.8554V71.7543C275.818 75.6905 272.627 78.8814 268.691 78.8814Z" fill="#25282A"/>
<path d="M385.575 79.9348H373.244V161.552C373.244 165.446 370.053 168.603 366.117 168.603H351.886C347.95 168.603 344.759 165.446 344.759 161.552V79.9348H339.248C335.312 79.9348 332.122 76.7782 332.122 72.8844V63.758C332.122 59.8641 335.312 56.7075 339.248 56.7075H345.663H359.204H372.746H385.575C389.511 56.7075 392.702 59.8641 392.702 63.758V72.8844C392.702 76.7782 389.511 79.9348 385.575 79.9348Z" fill="#25282A"/>
<path d="M372.746 42.9814C372.746 33.8649 376.467 24.7617 383.08 22.4616C386.739 21.189 390.92 21.3925 391.989 26.7378C393.058 32.0831 393.414 39.5666 400.185 44.5555C406.956 49.5445 416.221 47.7627 422.635 43.1301C429.05 38.4975 430.119 27.4505 426.555 19.9671C422.992 12.4837 417.239 7.69331 408.381 3.93121C400.906 1.1071 395.68 0.644278 387 0.367676C363.662 0.367676 345.663 18.7229 345.663 42.061V56.6715H372.746V42.9814Z" fill="#25282A"/>
</svg>
