<svg width="259" height="69" viewBox="0 0 259 69" fill="none" xmlns="http://www.w3.org/2000/svg">
<path d="M241.032 21.822C246.398 21.822 250.734 23.533 254.041 26.955C257.347 30.3227 259 35.0484 259 41.132V64.7501C259 66.3307 257.719 67.612 256.138 67.612H250.479C248.899 67.612 247.618 66.3307 247.618 64.7501V42.6801C247.618 39.0951 246.723 36.352 244.935 34.4509C243.146 32.4954 240.707 31.5177 237.617 31.5177C234.473 31.5177 231.98 32.4954 230.137 34.4509C228.349 36.352 227.454 39.0951 227.454 42.6801V64.7501C227.454 66.3307 226.173 67.612 224.592 67.612H218.934C217.353 67.612 216.072 66.3307 216.072 64.7501V25.3357C216.072 23.7551 217.353 22.4738 218.934 22.4738H224.592C226.173 22.4738 227.454 23.7551 227.454 25.3357V28.0957C228.972 26.1402 230.896 24.6193 233.227 23.533C235.612 22.3923 238.213 21.822 241.032 21.822Z" fill="white"/>
<path d="M0 44.9832C0 40.4162 0.900227 36.3657 2.70068 32.8317C4.55569 29.2977 7.03814 26.5793 10.148 24.6763C13.3124 22.7734 16.8315 21.822 20.7052 21.822C24.0879 21.822 27.0341 22.5016 29.5438 23.8608C32.1081 25.22 34.1541 26.9327 35.6817 28.9987V25.4178C35.6817 23.8373 36.963 22.5559 38.5436 22.5559H44.3591C45.9397 22.5559 47.221 23.8372 47.221 25.4178V64.8747C47.221 66.4553 45.9397 67.7366 44.3591 67.7366H38.5436C36.963 67.7366 35.6817 66.4553 35.6817 64.8747V61.1308C34.2086 63.2512 32.1627 65.0181 29.5438 66.4317C26.9795 67.791 24.0061 68.4706 20.6234 68.4706C16.8042 68.4706 13.3124 67.4919 10.148 65.5346C7.03814 63.5774 4.55569 60.8317 2.70068 57.2977C0.900227 53.7094 0 49.6045 0 44.9832ZM35.6817 45.1463C35.6817 42.3734 35.1361 40.0084 34.0449 38.0511C32.9538 36.0395 31.4807 34.5171 29.6256 33.4841C27.7706 32.3967 25.7792 31.853 23.6514 31.853C21.5236 31.853 19.5595 32.3695 17.759 33.4026C15.9586 34.4356 14.4855 35.9579 13.3397 37.9696C12.2485 39.9268 11.703 42.2647 11.703 44.9832C11.703 47.7016 12.2485 50.0938 13.3397 52.1599C14.4855 54.1715 15.9586 55.721 17.759 56.8084C19.614 57.8958 21.5782 58.4395 23.6514 58.4395C25.7792 58.4395 27.7706 57.923 29.6256 56.89C31.4807 55.8026 32.9538 54.2803 34.0449 52.323C35.1361 50.3113 35.6817 47.9191 35.6817 45.1463Z" fill="white"/>
<path d="M163.413 44.8411C163.413 40.3021 164.308 36.2764 166.098 32.7641C167.941 29.2518 170.409 26.5501 173.5 24.6588C176.645 22.7676 180.143 21.822 183.993 21.822C187.355 21.822 190.284 22.4974 192.778 23.8483C195.327 25.1992 197.36 26.9013 198.879 28.9546V25.4133C198.879 23.8327 200.16 22.5514 201.741 22.5514H207.486C209.067 22.5514 210.348 23.8327 210.348 25.4133V64.593C210.348 66.1736 209.067 67.4549 207.486 67.4549H201.741C200.16 67.4549 198.879 66.1736 198.879 64.593V60.8896C197.415 62.997 195.381 64.7531 192.778 66.1581C190.229 67.5089 187.274 68.1844 183.912 68.1844C180.116 68.1844 176.645 67.2118 173.5 65.2665C170.409 63.3212 167.941 60.5924 166.098 57.0801C164.308 53.5138 163.413 49.4341 163.413 44.8411ZM198.879 45.0032C198.879 42.2474 198.336 39.8968 197.252 37.9515C196.167 35.9522 194.703 34.4392 192.859 33.4126C191.016 32.3319 189.036 31.7915 186.921 31.7915C184.806 31.7915 182.854 32.3048 181.065 33.3315C179.275 34.3582 177.811 35.8712 176.672 37.8705C175.588 39.8158 175.045 42.1393 175.045 44.8411C175.045 47.5428 175.588 49.9204 176.672 51.9738C177.811 53.9731 179.275 55.5131 181.065 56.5938C182.908 57.6745 184.861 58.2148 186.921 58.2148C189.036 58.2148 191.016 57.7015 192.859 56.6748C194.703 55.5941 196.167 54.0811 197.252 52.1359C198.336 50.1365 198.879 47.759 198.879 45.0032Z" fill="white"/>
<path d="M79.5737 32.0981C78.3838 33.2156 76.6907 33.7405 74.8564 33.7405L73.5841 33.7405C70.0728 33.7405 68.5595 34.7152 66.7506 36.3935C64.9949 38.0718 64.1171 40.9953 64.1171 45.164V64.7156C64.1171 66.2962 62.8358 67.5775 61.2552 67.5775H55.8066C54.2261 67.5775 52.9448 66.2962 52.9448 64.7156V25.4499C52.9448 23.8694 54.2261 22.5881 55.8066 22.5881H61.2552C62.8358 22.5881 64.1171 23.8694 64.1171 25.4499V29.572C65.5536 27.1899 68.6802 24.3384 70.9678 22.9849C71.9069 22.442 73.121 21.822 75.0375 21.822C76.8718 21.822 78.3838 22.405 79.5737 23.5711C80.8131 24.6886 81.4328 26.0976 81.4328 27.7982C81.4328 29.4987 80.8131 30.932 79.5737 32.0981Z" fill="white"/>
<path d="M117.192 16.2082C118.482 17.3717 120.082 17.9535 121.992 17.9535C123.902 17.9535 125.476 17.3717 126.715 16.2082C128.005 14.9942 128.65 13.5019 128.65 11.7314C128.65 9.96084 128.005 8.49384 126.715 7.33036C125.476 6.11629 123.902 5.50926 121.992 5.50926C120.082 5.50926 118.482 6.11629 117.192 7.33036C115.953 8.49384 115.334 9.96084 115.334 11.7314C115.334 13.5019 115.953 14.9942 117.192 16.2082Z" fill="white"/>
<path d="M109.374 67.6914C98.7563 67.6914 90.1492 59.0814 90.1492 48.4605H101.119C101.119 53.0212 104.815 56.7185 109.374 56.7185C113.933 56.7185 116.478 53.0212 116.478 48.4605H127.497C127.497 59.0814 119.991 67.6914 109.374 67.6914Z" fill="white"/>
<path d="M124.635 21.822C126.215 21.822 127.497 23.1033 127.497 24.6838L127.497 48.4605H116.478L116.478 24.6838C116.478 23.1033 117.76 21.822 119.34 21.822H124.635Z" fill="white"/>
<path d="M107.893 31.5271H101.106L101.119 48.4605H90.1336L90.1336 31.5271H87.8597C86.2791 31.5271 84.9978 30.2458 84.9978 28.6653V25.4935C84.9978 23.9129 86.2791 22.6316 87.8597 22.6316H90.1336V14.8962C90.1336 13.3156 91.4149 12.0343 92.9955 12.0343H98.2437C99.8243 12.0343 101.106 13.3156 101.106 14.8962V22.6316H107.893C109.473 22.6316 110.755 23.9129 110.755 25.4935V28.6653C110.755 30.2458 109.473 31.5271 107.893 31.5271Z" fill="white"/>
<path d="M154.828 31.9502H149.876V64.7236C149.876 66.2872 148.595 67.5547 147.015 67.5547H141.3C139.719 67.5547 138.438 66.2872 138.438 64.7236V31.9502H136.225C134.645 31.9502 133.364 30.6826 133.364 29.119V25.4544C133.364 23.8908 134.645 22.6232 136.225 22.6232H154.828C156.408 22.6232 157.69 23.8908 157.69 25.4544V29.119C157.69 30.6826 156.408 31.9502 154.828 31.9502Z" fill="white"/>
<path d="M149.676 17.1115C149.676 13.4508 151.171 9.79544 153.826 8.87182C155.295 8.36081 156.974 8.44254 157.403 10.5889C157.833 12.7354 157.976 15.7403 160.694 17.7436C163.413 19.747 167.134 19.0315 169.709 17.1713C172.285 15.311 172.714 10.8751 171.283 7.87017C169.852 4.86519 167.542 2.94161 163.986 1.43094C160.984 0.296915 158.885 0.11107 155.4 0C146.029 0 138.801 7.37057 138.801 16.742V22.6088H149.676V17.1115Z" fill="white"/>
</svg>
