<svg width="905" height="240" viewBox="0 0 905 240" fill="none" xmlns="http://www.w3.org/2000/svg">
<path d="M842.216 76.4504C860.966 76.4504 876.117 82.4291 887.67 94.3864C899.224 106.154 905 122.666 905 143.924V226.45C905 231.973 900.523 236.45 895 236.45H875.227C869.704 236.45 865.227 231.973 865.227 226.45V149.333C865.227 136.806 862.102 127.222 855.852 120.579C849.602 113.746 841.08 110.329 830.284 110.329C819.299 110.329 810.587 113.746 804.148 120.579C797.898 127.222 794.773 136.806 794.773 149.333V226.45C794.773 231.973 790.296 236.45 784.773 236.45H765C759.477 236.45 755 231.973 755 226.45V88.728C755 83.2052 759.477 78.728 765 78.728H784.773C790.296 78.728 794.773 83.2052 794.773 88.728V98.3721C800.076 91.5394 806.799 86.2251 814.943 82.4291C823.277 78.4433 832.367 76.4504 842.216 76.4504Z" fill="#25282A"/>
<path d="M0 157.38C0 141.422 3.14558 127.269 9.43674 114.921C15.9185 102.572 24.5927 93.0734 35.4593 86.4242C46.5165 79.775 58.8128 76.4504 72.3484 76.4504C84.1681 76.4504 94.4627 78.8251 103.232 83.5746C112.192 88.324 119.341 94.3082 124.679 101.527V89.0151C124.679 83.4923 129.157 79.0151 134.679 79.0151H155C160.523 79.0151 165 83.4923 165 89.0151V226.886C165 232.409 160.523 236.886 155 236.886H134.679C129.157 236.886 124.679 232.409 124.679 226.886V213.804C119.532 221.213 112.383 227.387 103.232 232.326C94.2721 237.076 83.8821 239.45 72.0624 239.45C58.7175 239.45 46.5165 236.031 35.4593 229.192C24.5927 222.353 15.9185 212.759 9.43674 200.41C3.14558 187.872 0 173.528 0 157.38ZM124.679 157.95C124.679 148.262 122.773 139.998 118.96 133.158C115.147 126.129 110 120.81 103.518 117.2C97.0364 113.401 90.078 111.501 82.643 111.501C75.208 111.501 68.3449 113.306 62.0537 116.915C55.7626 120.525 50.6152 125.844 46.6118 132.873C42.799 139.713 40.8925 147.882 40.8925 157.38C40.8925 166.879 42.799 175.238 46.6118 182.457C50.6152 189.487 55.7626 194.901 62.0537 198.7C68.5355 202.5 75.3986 204.4 82.643 204.4C90.078 204.4 97.0364 202.595 103.518 198.985C110 195.186 115.147 189.866 118.96 183.027C122.773 175.998 124.679 167.639 124.679 157.95Z" fill="#25282A"/>
<path d="M571 156.884C571 141.024 574.127 126.957 580.38 114.685C586.822 102.412 595.444 92.9714 606.244 86.363C617.235 79.7546 629.456 76.4504 642.91 76.4504C654.658 76.4504 664.89 78.8106 673.607 83.5308C682.512 88.2511 689.618 94.1987 694.924 101.374V88.9994C694.924 83.4765 699.401 78.9994 704.924 78.9994H725C730.523 78.9994 735 83.4765 735 88.9994V225.901C735 231.424 730.523 235.902 725 235.902H704.924C699.401 235.902 694.924 231.424 694.924 225.902V212.961C689.808 220.325 682.702 226.461 673.607 231.37C664.701 236.09 654.374 238.45 642.626 238.45C629.362 238.45 617.235 235.052 606.244 228.255C595.444 221.457 586.822 211.922 580.38 199.65C574.127 187.188 571 172.933 571 156.884ZM694.924 157.45C694.924 147.821 693.029 139.608 689.239 132.811C685.449 125.825 680.333 120.538 673.891 116.95C667.448 113.174 660.532 111.286 653.142 111.286C645.752 111.286 638.931 113.08 632.678 116.667C626.425 120.255 621.308 125.541 617.329 132.527C613.54 139.325 611.645 147.443 611.645 156.884C611.645 166.325 613.54 174.632 617.329 181.807C621.308 188.793 626.425 194.174 632.678 197.95C639.12 201.727 645.942 203.615 653.142 203.615C660.532 203.615 667.448 201.821 673.891 198.234C680.333 194.457 685.449 189.171 689.239 182.373C693.029 175.387 694.924 167.08 694.924 157.45Z" fill="#25282A"/>
<path d="M278.047 112.357C273.889 116.262 267.973 118.096 261.564 118.096L257.118 118.096C244.849 118.096 239.561 121.502 233.24 127.366C227.106 133.231 224.039 143.446 224.039 158.012V226.33C224.039 231.853 219.561 236.33 214.039 236.33H195C189.477 236.33 185 231.853 185 226.33V89.1273C185 83.6045 189.477 79.1273 195 79.1273H214.039C219.561 79.1273 224.039 83.6045 224.039 89.1273V103.531C229.058 95.207 239.983 85.2434 247.976 80.5141C251.258 78.6169 255.5 76.4505 262.197 76.4505C268.606 76.4505 273.889 78.4877 278.047 82.5623C282.378 86.467 284.543 91.3905 284.543 97.3325C284.543 103.275 282.378 108.283 278.047 112.357Z" fill="#25282A"/>
<path d="M409.493 56.8349C414.002 60.9003 419.593 62.9331 426.266 62.9331C432.939 62.9331 438.44 60.9003 442.768 56.8349C447.277 52.5927 449.532 47.3783 449.532 41.1918C449.532 35.0052 447.277 29.8792 442.768 25.8137C438.44 21.5715 432.939 19.4504 426.266 19.4504C419.593 19.4504 414.002 21.5715 409.493 25.8137C405.164 29.8792 403 35.0052 403 41.1918C403 47.3783 405.164 52.5927 409.493 56.8349Z" fill="#E5074B"/>
<path d="M382.175 236.728C345.075 236.728 315 206.643 315 169.531H353.329C353.329 185.467 366.244 198.386 382.175 198.386C398.106 198.386 407 185.467 407 169.531H445.5C445.5 206.643 419.275 236.728 382.175 236.728Z" fill="#E5074B"/>
<path d="M435.5 76.4504C441.023 76.4504 445.5 80.9276 445.5 86.4504V169.531H407V86.4504C407 80.9276 411.477 76.4504 417 76.4504H435.5Z" fill="#25282A"/>
<path d="M377 110.362H353.284L353.329 169.531H314.946V110.362H307C301.477 110.362 297 105.885 297 100.362V89.2794C297 83.7566 301.477 79.2794 307 79.2794H314.946V52.2502C314.946 46.7274 319.423 42.2502 324.946 42.2502H343.284C348.807 42.2502 353.284 46.7274 353.284 52.2502V79.2794H377C382.523 79.2794 387 83.7566 387 89.2794V100.362C387 105.885 382.523 110.362 377 110.362Z" fill="#25282A"/>
<path d="M541.001 111.84H523.699V226.358C523.699 231.821 519.222 236.25 513.7 236.25H493.731C488.209 236.25 483.732 231.821 483.732 226.358V111.84H475.999C470.477 111.84 466 107.411 466 101.948V89.1428C466 83.6793 470.477 79.2502 475.999 79.2502H485H504H523H541.001C546.523 79.2502 551 83.6793 551 89.1428V101.948C551 107.411 546.523 111.84 541.001 111.84Z" fill="#25282A"/>
<path d="M523 59.9913C523 47.2 528.222 34.4272 537.5 31.2C542.634 29.4144 548.5 29.7 550 37.2C551.5 44.6999 552 55.2 561.5 62.2C571 69.2 584 66.7 593 60.2C602 53.7 603.5 38.2 598.5 27.7C593.5 17.2 585.428 10.4786 573 5.19995C562.512 1.23743 555.179 0.588052 543 0.199951C510.254 0.199951 485 25.9543 485 58.7V79.2H523V59.9913Z" fill="#FF9E1B"/>
</svg>
